HIERARCHY
ROOT Hips
{
	OFFSET 0.000000 0.000000 0.000000
	CHANNELS 6 Xposition Yposition Zposition Zrotation Yrotation Xrotation 
	JOINT LHipJoint
	{
		OFFSET 0.000000 0.000000 0.000000
		CHANNELS 3 Zrotation Yrotation Xrotation
		JOINT LeftUpLeg
		{
			OFFSET 1.363060 -1.794630 0.839290
			CHANNELS 3 Zrotation Yrotation Xrotation
			JOINT LeftLeg
			{
				OFFSET 2.448110 -6.726130 0.000000
				CHANNELS 3 Zrotation Yrotation Xrotation
				JOINT LeftFoot
				{
					OFFSET 2.562200 -7.039590 0.000000
					CHANNELS 3 Zrotation Yrotation Xrotation
					JOINT LeftToeBase
					{
						OFFSET 0.157640 -0.433110 2.322550
						CHANNELS 3 Zrotation Yrotation Xrotation
						End Site
						{
							OFFSET 0.000000 0.000000 0.000000
						}
					}
				}
			}
		}
	}
	JOINT RHipJoint
	{
		OFFSET 0.000000 0.000000 0.000000
		CHANNELS 3 Zrotation Yrotation Xrotation
		JOINT RightUpLeg
		{
			OFFSET -1.305520 -1.794630 0.839290
			CHANNELS 3 Zrotation Yrotation Xrotation
			JOINT RightLeg
			{
				OFFSET -2.542530 -6.985550 0.000000
				CHANNELS 3 Zrotation Yrotation Xrotation
				JOINT RightFoot
				{
					OFFSET -2.568260 -7.056230 0.000000
					CHANNELS 3 Zrotation Yrotation Xrotation
					JOINT RightToeBase
					{
						OFFSET -0.164730 -0.452590 2.363150
						CHANNELS 3 Zrotation Yrotation Xrotation
						End Site
						{
							OFFSET 0.000000 0.000000 0.000000
						}
					}
				}
			}
		}
	}
	JOINT LowerBack
	{
		OFFSET 0.000000 0.000000 0.000000
		CHANNELS 3 Zrotation Yrotation Xrotation
		JOINT Spine
		{
			OFFSET 0.028270 2.035590 -0.193380
			CHANNELS 3 Zrotation Yrotation Xrotation
			JOINT Spine1
			{
				OFFSET 0.056720 2.048850 -0.042750
				CHANNELS 3 Zrotation Yrotation Xrotation
				JOINT Neck
				{
					OFFSET 0.000000 0.000000 0.000000
					CHANNELS 3 Zrotation Yrotation Xrotation
					JOINT Neck1
					{
						OFFSET -0.054170 1.746240 0.172020
						CHANNELS 3 Zrotation Yrotation Xrotation
						JOINT Head
						{
							OFFSET 0.104070 1.761360 -0.123970
							CHANNELS 3 Zrotation Yrotation Xrotation
							End Site
							{
								OFFSET 0.000000 0.000000 0.000000
							}
						}
					}
				}
				JOINT LeftShoulder
				{
					OFFSET 0.000000 0.000000 0.000000
					CHANNELS 3 Zrotation Yrotation Xrotation
					JOINT LeftArm
					{
						OFFSET 3.362410 1.200890 -0.311210
						CHANNELS 3 Zrotation Yrotation Xrotation
						JOINT LeftForeArm
						{
							OFFSET 4.983000 -0.000000 -0.000000
							CHANNELS 3 Zrotation Yrotation Xrotation
							JOINT LeftHand
							{
								OFFSET 3.483560 -0.000000 -0.000000
								CHANNELS 3 Zrotation Yrotation Xrotation
								JOINT LeftFingerBase
								{
									OFFSET 0.000000 0.000000 0.000000
									CHANNELS 3 Zrotation Yrotation Xrotation
									JOINT LeftHandIndex1
									{
										OFFSET 0.715260 -0.000000 -0.000000
										CHANNELS 3 Zrotation Yrotation Xrotation
										End Site
										{
											OFFSET 0.000000 0.000000 0.000000
										}
									}
								}
								JOINT LThumb
								{
									OFFSET 0.000000 0.000000 0.000000
									CHANNELS 3 Zrotation Yrotation Xrotation
									End Site
									{
										OFFSET 0.000000 0.000000 0.000000
									}
								}
							}
						}
					}
				}
				JOINT RightShoulder
				{
					OFFSET 0.000000 0.000000 0.000000
					CHANNELS 3 Zrotation Yrotation Xrotation
					JOINT RightArm
					{
						OFFSET -3.136600 1.374050 -0.404650
						CHANNELS 3 Zrotation Yrotation Xrotation
						JOINT RightForeArm
						{
							OFFSET -5.241900 -0.000000 -0.000000
							CHANNELS 3 Zrotation Yrotation Xrotation
							JOINT RightHand
							{
								OFFSET -3.444170 -0.000000 -0.000000
								CHANNELS 3 Zrotation Yrotation Xrotation
								JOINT RightFingerBase
								{
									OFFSET 0.000000 0.000000 0.000000
									CHANNELS 3 Zrotation Yrotation Xrotation
									JOINT RightHandIndex1
									{
										OFFSET -0.622530 -0.000000 -0.000000
										CHANNELS 3 Zrotation Yrotation Xrotation
										End Site
										{
											OFFSET 0.000000 0.000000 0.000000
										}
									}
								}
								JOINT RThumb
								{
									OFFSET 0.000000 0.000000 0.000000
									CHANNELS 3 Zrotation Yrotation Xrotation
									End Site
									{
										OFFSET 0.000000 0.000000 0.000000
									}
								}
							}
						}
					}
				}
			}
		}
	}
}
MOTION
Frames: 4
Frame Time: 0.008333
4.976000 17.124414 0.365289 176.034287 -79.548726 -159.498320 -10.862082 1.329543 0.164378 -9.614797 18.780978 -24.058826 -3.265761 -1.321832 3.601116 0.924508 6.283297 -2.499306 0.700900 0.000000 -38.873200 8.982737 -1.419783 4.254498 4.826398 4.338918 -28.717447 2.179057 0.113110 15.840616 -1.032432 -3.533926 -5.653238 -0.573900 -0.000000 -58.536100 0.950121 -0.388458 -5.308941 -0.588780 -0.638769 -4.552758 -6.573669 -0.702659 -3.014302 7.585655 -0.643715 -1.439169 -3.899544 -0.348400 1.664825 0.000000 0.000000 0.000000 0.361977 0.041044 1.886127 -59.095643 -28.796219 8.355821 -0.410388 -76.957762 -0.020525 2.270906 5.581704 0.107311 -0.074479 0.428072 -0.000000 0.000000 0.000000 0.000000 0.000000 0.000000 0.000000 13.261222 4.827638 0.037816 73.878613 36.709782 17.840124 0.143263 56.459025 -0.029369 -3.709676 5.613740 -0.193379 -0.033783 -0.430249 0.000000 0.000000 0.000000 0.000000 0.000000 0.000000 0.000000 
4.972358 17.116714 0.336661 175.704673 -79.148026 -159.199402 -10.850216 1.331504 0.085590 -9.653534 19.019070 -24.145917 -3.273399 -1.286464 4.042945 0.958446 6.467560 -2.713562 0.685700 0.000000 -39.010400 8.983017 -1.401073 4.321091 4.696741 4.774881 -28.984925 2.127614 0.052991 16.517720 -1.061883 -3.564644 -6.003504 -0.539100 -0.000000 -58.308600 0.915987 -0.411479 -5.292955 -0.605417 -0.663141 -4.540723 -6.643151 -0.738188 -2.917082 7.747364 -0.628044 -1.662394 -3.959004 -0.349592 1.599030 0.000000 0.000000 0.000000 0.049479 0.036000 2.037530 -58.853402 -27.699521 8.545382 -0.525874 -75.239951 -0.019822 2.171583 5.776333 0.107377 -0.080008 0.405890 -0.000000 0.000000 0.000000 0.000000 0.000000 0.000000 0.000000 13.843443 4.821350 0.178029 73.988043 35.777253 18.023226 0.248651 54.439609 -0.027466 -3.815811 5.233594 -0.186191 -0.022427 -0.407937 -0.000000 0.000000 0.000000 0.000000 0.000000 0.000000 0.000000 
4.967598 17.108694 0.306933 175.412663 -78.758213 -158.946489 -10.840206 1.333792 0.014622 -9.663460 19.220148 -24.212771 -3.275591 -1.249706 4.488408 0.993622 6.660432 -2.923063 0.670600 -0.000000 -39.186300 8.982067 -1.381892 4.385467 4.575593 5.213902 -29.232055 2.075183 -0.006253 17.195130 -1.094580 -3.612821 -6.356478 -0.504800 0.000000 -58.070500 0.890650 -0.437551 -5.282120 -0.620574 -0.691655 -4.527254 -6.715153 -0.777587 -2.810530 7.911757 -0.617132 -1.893243 -4.021914 -0.350964 1.530975 0.000000 0.000000 0.000000 -0.261337 0.080219 2.180842 -58.660912 -26.617928 8.768615 -0.651689 -73.487098 -0.018938 2.043628 5.926647 0.104744 -0.084951 0.384399 -0.000000 0.000000 0.000000 0.000000 0.000000 0.000000 0.000000 14.436960 4.796840 0.309993 74.078267 34.811583 18.136604 0.362897 52.439419 -0.025731 -3.922438 4.901977 -0.179902 -0.011495 -0.386489 -0.000000 0.000000 0.000000 0.000000 0.000000 0.000000 0.000000 
4.961779 17.100357 0.276040 175.155289 -78.380013 -158.736449 -10.832121 1.335829 -0.048674 -9.643357 19.384315 -24.263121 -3.272476 -1.211207 4.942998 1.029982 6.859766 -3.132265 0.654600 0.000000 -39.374100 8.979565 -1.362012 4.447456 4.463825 5.657390 -29.456858 2.021713 -0.064420 17.872722 -1.131070 -3.680699 -6.713774 -0.470700 0.000000 -57.810500 0.873326 -0.467562 -5.276049 -0.634176 -0.725067 -4.512409 -6.788541 -0.821566 -2.695109 8.078191 -0.611885 -2.131637 -4.087641 -0.352495 1.460740 0.000000 0.000000 0.000000 -0.565325 0.172547 2.314996 -58.521968 -25.549691 9.016481 -0.787895 -71.691534 -0.017890 1.887661 6.035380 0.099613 -0.089289 0.363532 -0.000000 0.000000 0.000000 0.000000 0.000000 0.000000 0.000000 15.038194 4.753783 0.433520 74.148274 33.818135 18.183630 0.485494 50.459545 -0.024016 -4.007197 4.617362 -0.173612 -0.001315 -0.365837 -0.000000 0.000000 0.000000 0.000000 0.000000 0.000000 0.000000 
